<?xml version="1.0" standalone="no"?>
<!DOCTYPE svg PUBLIC "-//W3C//DTD SVG 20010904//EN"
 "http://www.w3.org/TR/2001/REC-SVG-20010904/DTD/svg10.dtd">
<svg version="1.0" xmlns="http://www.w3.org/2000/svg"
 width="2000.000000pt" height="2000.000000pt" viewBox="0 0 2000.000000 2000.000000"
 preserveAspectRatio="xMidYMid meet">
<metadata>
Created by potrace 1.14, written by Peter Selinger 2001-2017
</metadata>
<g transform="translate(0.000000,2000.000000) scale(0.100000,-0.100000)"
fill="#000000" stroke="none">
<path d="M9680 19914 c-1488 -61 -2797 -389 -4070 -1020 -1003 -497 -1822
-1085 -2620 -1884 -799 -798 -1387 -1617 -1884 -2620 -591 -1193 -915 -2416
-1008 -3800 -26 -395 -14 -1064 28 -1520 165 -1817 843 -3568 1951 -5038 288
-382 542 -671 913 -1042 371 -371 660 -625 1042 -913 1471 -1108 3213 -1783
5038 -1951 341 -32 526 -40 930 -40 865 0 1605 90 2420 294 702 176 1334 410
1990 736 801 399 1467 847 2160 1453 200 174 687 661 861 861 622 711 1076
1391 1480 2215 583 1190 895 2377 991 3765 26 384 14 1072 -28 1520 -168 1825
-843 3567 -1951 5038 -288 382 -542 671 -913 1042 -284 284 -467 452 -737 673
-1027 843 -2250 1484 -3533 1852 -693 198 -1372 314 -2135 365 -158 11 -781
20 -925 14z m2894 -3392 c15 -17 16 -105 14 -1145 -2 -907 -6 -1129 -16 -1139
-10 -10 -157 -14 -700 -20 -422 -4 -702 -10 -727 -16 -22 -6 -65 -17 -95 -25
-49 -13 -113 -41 -190 -82 -56 -31 -180 -189 -180 -230 0 -6 -7 -27 -16 -45
-9 -18 -21 -67 -25 -109 -5 -42 -13 -116 -19 -166 -10 -96 -14 -1372 -4 -1399
6 -14 101 -16 978 -16 800 0 975 -2 991 -14 15 -10 17 -20 11 -52 -16 -86 -28
-185 -36 -304 -5 -69 -14 -156 -20 -195 -6 -38 -15 -128 -20 -200 -6 -71 -15
-161 -20 -200 -6 -38 -15 -128 -20 -200 -6 -71 -15 -161 -20 -200 -6 -38 -15
-126 -20 -195 -5 -69 -14 -156 -20 -195 -6 -38 -15 -126 -20 -195 -8 -112 -15
-178 -38 -320 l-7 -45 -859 -3 c-615 -1 -863 -5 -873 -13 -11 -10 -13 -565
-13 -3349 0 -1836 -3 -3345 -6 -3354 -6 -14 -129 -16 -1296 -16 -870 0 -1296
3 -1309 10 -19 11 -19 59 -19 3353 0 2587 -3 3346 -12 3355 -9 9 -163 12 -633
12 -341 0 -630 3 -642 6 l-23 6 0 1142 c0 875 3 1145 12 1154 9 9 166 12 643
12 477 0 634 3 643 12 9 9 12 181 13 708 0 382 5 781 10 885 18 362 28 490 39
535 7 25 15 83 20 130 4 47 15 108 24 135 9 28 16 67 16 88 0 21 9 57 20 79
11 23 20 56 20 74 0 18 9 53 20 79 11 26 20 54 20 64 0 9 9 36 20 59 11 22 20
47 20 55 0 7 9 32 20 55 11 22 20 45 20 50 0 9 70 156 91 192 4 8 21 40 37 70
67 128 208 315 325 433 104 104 243 221 282 238 6 2 35 20 65 40 112 73 212
129 231 129 6 0 22 9 36 20 14 11 36 20 49 20 12 0 25 4 28 9 3 4 34 19 68 31
35 13 68 26 73 30 6 4 28 11 50 15 22 4 45 10 50 15 12 9 156 48 230 62 28 5
68 14 90 19 22 6 105 19 185 29 80 11 156 23 170 26 57 16 357 21 1276 22 932
2 972 1 988 -16z"/>
</g>
</svg>
